<?xml version="1.0" encoding="utf-8"?>
<!-- Svg Vector Icons : http://www.onlinewebfonts.com/icon -->
<!DOCTYPE svg PUBLIC "-//W3C//DTD SVG 1.1//EN" "http://www.w3.org/Graphics/SVG/1.1/DTD/svg11.dtd">
<svg version="1.1" xmlns="http://www.w3.org/2000/svg" xmlns:xlink="http://www.w3.org/1999/xlink" x="0px" y="0px" viewBox="0 0 1000 1000" enable-background="new 0 0 1000 1000" xml:space="preserve">
<metadata> Svg Vector Icons : http://www.onlinewebfonts.com/icon </metadata>
<g><g transform="translate(0.000000,512.000000) scale(0.100000,-0.100000)"><path d="M3775.1,4987.1c-126.5-44.1-224.2-120.8-304.7-239.6c-82.4-120.8-107.3-222.3-97.7-385.2c13.4-210.8,130.3-394.8,312.4-490.7l86.2-46V2788.7v-1035L2410.5-486.7c-747.5-1230.5-1378.1-2286.5-1399.1-2344c-80.5-212.8-99.7-345-90.1-588.4c5.8-182.1,19.2-262.6,59.4-383.3c153.3-454.2,496.4-783.9,969.8-933.4l143.7-44.1h2903.7h2903.7l143.8,44.1c452.3,143.8,772.4,437,944.9,866.3c132.2,333.5,118.8,774.3-32.6,1100.1c-23,53.7-649.7,1092.5-1389.6,2309.5L6224.6,1753.8v1035v1036.9l86.3,46c101.6,53.7,201.2,157.2,262.6,274.1c36.4,69,44.1,111.2,44.1,264.5s-7.7,195.5-44.1,264.5c-67.1,126.5-168.7,228.1-287.5,285.6l-109.2,53.7l-1150,3.8C3951.4,5023.5,3870.9,5019.7,3775.1,4987.1z M6100,4594.2c67.1-28.8,124.6-113.1,124.6-184c0-70.9-57.5-155.2-124.6-184c-97.7-40.2-2106.4-40.2-2204.1,0c-67.1,28.8-124.6,113.1-124.6,184c0,69,57.5,155.3,120.8,182.1C3984,4632.5,6004.1,4634.5,6100,4594.2z M5822.1,2710.2l1.9-1088.6l898.9-1475.8l898.9-1475.8l-90.1-92c-230-237.7-630.6-486.8-962.1-596.1c-392.9-130.3-776.2-139.9-1188.3-34.5c-437,113.1-791.6,293.2-1460.5,739.8c-377.6,251.1-818.4,496.4-1036.9,576.9c-49.8,19.2-95.8,40.2-99.7,47.9c-5.7,7.7,304.7,532.8,690,1165.3l699.6,1150v1084.8v1084.8h824.1h824.1V2710.2z M2813-1149.9c239.6-99.6,500.2-249.2,852.9-486.8C4394.2-2127.4,4881-2365,5400.4-2480c214.7-47.9,713-59.4,931.5-21.1c479.1,82.4,1067.6,383.3,1420.2,726.4c49.8,47.9,88.2,70.9,97.8,61.3c26.8-30.7,686.2-1125.1,730.2-1211.3c139.9-279.8,120.7-670.8-49.8-962.1c-134.2-231.9-452.3-442.7-724.5-481.1c-180.2-24.9-5435.5-24.9-5615.7,0c-195.5,26.8-423.6,145.7-575,297.1c-299,297.1-383.3,782-199.3,1146.1c32.6,63.2,983.2,1642.6,1104,1830.4C2552.3-1042.6,2552.3-1042.6,2813-1149.9z"/></g></g>
</svg>